<svg width="285" height="32" viewBox="0 0 285 32" fill="none" xmlns="http://www.w3.org/2000/svg">
<path d="M103.945 2.40234L90.7441 31.5614H94.6745L107.875 2.40234H103.945Z" fill="#0DB0C7"/>
<path d="M134.106 24.2665H118.596L115.385 31.5614H111.09L124.306 2.37671H128.432L141.689 31.5614H137.311L134.101 24.2665H134.106ZM132.645 20.9329L126.348 6.63121L120.052 20.9329H132.645Z" fill="#282C47"/>
<path d="M165.539 0.627686V31.5615H161.702V28.0581C159.911 30.5584 157.072 31.8085 153.82 31.8085C147.359 31.8085 142.646 27.2659 142.646 20.5112C142.646 13.7564 147.359 9.25501 153.82 9.25501C156.948 9.25501 159.7 10.4228 161.532 12.7996V0.627686H165.534H165.539ZM161.578 20.5163C161.578 15.804 158.368 12.7636 154.155 12.7636C149.941 12.7636 146.69 15.8091 146.69 20.5163C146.69 25.2235 149.9 28.3102 154.155 28.3102C158.409 28.3102 161.578 25.2235 161.578 20.5163Z" fill="#282C47"/>
<path d="M192.131 9.46582L182.46 31.5614H178.375L168.703 9.46582H172.87L180.458 27.1835L188.211 9.46582H192.131Z" fill="#282C47"/>
<path d="M194.632 2.62884C194.632 1.1678 195.8 0 197.343 0C198.886 0 200.054 1.12664 200.054 2.54138C200.054 4.04357 198.928 5.21138 197.343 5.21138C195.758 5.21138 194.632 4.08473 194.632 2.62884ZM195.342 9.46588H199.344V31.5615H195.342V9.46588Z" fill="#282C47"/>
<path d="M203.635 29.2258L205.302 26.0568C207.18 27.3893 210.179 28.3513 213.055 28.3513C216.764 28.3513 218.307 27.2246 218.307 25.3469C218.307 20.3876 204.34 24.6781 204.34 15.881C204.34 11.9198 207.884 9.24976 213.554 9.24976C216.429 9.24976 219.681 10.0009 221.6 11.251L219.892 14.42C217.89 13.1287 215.678 12.6708 213.512 12.6708C210.009 12.6708 208.301 13.9621 208.301 15.7164C208.301 20.9278 222.31 16.6733 222.31 25.2646C222.31 29.267 218.642 31.8084 212.761 31.8084C209.093 31.8084 205.466 30.6817 203.63 29.2258H203.635Z" fill="#282C47"/>
<path d="M225.339 20.511C225.339 13.9261 230.216 9.25488 236.847 9.25488C243.478 9.25488 248.314 13.9261 248.314 20.511C248.314 27.096 243.478 31.8084 236.847 31.8084C230.216 31.8084 225.339 27.096 225.339 20.511ZM244.265 20.511C244.265 15.7987 241.096 12.7583 236.842 12.7583C232.587 12.7583 229.377 15.8038 229.377 20.511C229.377 25.2183 232.587 28.305 236.842 28.305C241.096 28.305 244.265 25.2183 244.265 20.511Z" fill="#282C47"/>
<path d="M264.576 9.25488V13.1338C264.242 13.0927 263.954 13.0927 263.66 13.0927C259.365 13.0927 256.695 15.7215 256.695 20.5573V31.5614H252.692V9.46581H256.53V13.175C257.95 10.5925 260.697 9.25488 264.576 9.25488Z" fill="#282C47"/>
<path d="M266.325 29.2258L267.992 26.0568C269.87 27.3893 272.869 28.3513 275.745 28.3513C279.454 28.3513 280.998 27.2246 280.998 25.3469C280.998 20.3876 267.03 24.6781 267.03 15.881C267.03 11.9198 270.575 9.24976 276.244 9.24976C279.12 9.24976 282.371 10.0009 284.29 11.251L282.582 14.42C280.581 13.1287 278.369 12.6708 276.203 12.6708C272.7 12.6708 270.992 13.9621 270.992 15.7164C270.992 20.9278 285 16.6733 285 25.2646C285 29.267 281.332 31.8084 275.452 31.8084C271.784 31.8084 268.157 30.6817 266.32 29.2258H266.325Z" fill="#282C47"/>
<path d="M18.5974 31.4792L12.9693 23.3509H6.75472V31.4792H0V2.29443H12.6349C20.4339 2.29443 25.3109 6.33801 25.3109 12.8818C25.3109 17.2598 23.1039 20.4699 19.3073 22.0956L25.8511 31.474H18.5974V31.4792ZM12.2593 7.79905H6.75472V17.9697H12.2593C16.3852 17.9697 18.4739 16.0508 18.4739 12.8818C18.4739 9.7128 16.3904 7.7939 12.2593 7.7939V7.79905Z" fill="#282C47"/>
<path d="M28.2637 16.8842C28.2637 8.08715 35.0184 1.79028 44.1087 1.79028C49.1555 1.79028 53.3637 3.62687 56.116 6.9605L51.7792 10.9629C49.8191 8.70963 47.36 7.54183 44.4431 7.54183C38.9797 7.54183 35.1059 11.3796 35.1059 16.8791C35.1059 22.3786 38.9848 26.2164 44.4431 26.2164C47.36 26.2164 49.8191 25.0486 51.7792 22.7541L56.116 26.7565C53.3637 30.1313 49.1555 31.9679 44.0676 31.9679C35.0184 31.9679 28.2637 25.671 28.2637 16.8739V16.8842Z" fill="#282C47"/>
<path d="M85.4144 12.8818C85.4144 19.3845 80.5375 23.428 72.7384 23.428H66.8582V31.474H60.1035V2.29443H72.7384C80.5375 2.29443 85.4144 6.33801 85.4144 12.8818ZM78.5774 12.8818C78.5774 9.67164 76.4939 7.7939 72.3629 7.7939H66.8582V17.9234H72.3629C76.4887 17.9234 78.5774 16.0457 78.5774 12.8767V12.8818Z" fill="#282C47"/>
</svg>